<svg width="137" height="133" viewBox="0 0 137 133" fill="none" xmlns="http://www.w3.org/2000/svg">
<rect x="14.5" y="40" width="78" height="45" rx="22.5" stroke="#19ECB7" stroke-width="2"/>
<g filter="url(#filter0_d_9614_1671)">
<path d="M69.4287 71.4619C69.7597 71.462 70.0315 71.6323 70.1748 71.8672L70.3965 72.2305L70.1748 72.5947C70.0315 72.8296 69.7597 73 69.4287 73C68.9087 73 68.5713 72.6105 68.5713 72.2305C68.5715 71.8505 68.9088 71.4619 69.4287 71.4619ZM64.7861 61.7305C65.3059 61.7307 65.6426 62.12 65.6426 62.5C65.6426 62.88 65.3059 63.2693 64.7861 63.2695C64.2661 63.2695 63.9287 62.8801 63.9287 62.5C63.9287 62.1199 64.2661 61.7305 64.7861 61.7305ZM72.2139 61.7305C72.7339 61.7305 73.0713 62.1199 73.0713 62.5C73.0713 62.8801 72.7339 63.2695 72.2139 63.2695C71.6941 63.2693 71.3574 62.88 71.3574 62.5C71.3574 62.12 71.6941 61.7307 72.2139 61.7305ZM68.5 52C69.02 52 69.3574 52.3895 69.3574 52.7695C69.3573 53.0203 69.2147 53.2681 68.9443 53.418L68.5 53.6641L68.0557 53.418C67.7853 53.2681 67.6427 53.0203 67.6426 52.7695C67.6426 52.3895 67.98 52 68.5 52Z" stroke="#19ECB7" stroke-width="2" shape-rendering="crispEdges"/>
</g>
<defs>
<filter id="filter0_d_9614_1671" x="0.799999" y="0.299999" width="135.4" height="132.4" filterUnits="userSpaceOnUse" color-interpolation-filters="sRGB">
<feFlood flood-opacity="0" result="BackgroundImageFix"/>
<feColorMatrix in="SourceAlpha" type="matrix" values="0 0 0 0 0 0 0 0 0 0 0 0 0 0 0 0 0 0 127 0" result="hardAlpha"/>
<feOffset dy="4"/>
<feGaussianBlur stdDeviation="27.35"/>
<feComposite in2="hardAlpha" operator="out"/>
<feColorMatrix type="matrix" values="0 0 0 0 0.172549 0 0 0 0 0.952941 0 0 0 0 0.690196 0 0 0 0.21 0"/>
<feBlend mode="normal" in2="BackgroundImageFix" result="effect1_dropShadow_9614_1671"/>
<feBlend mode="normal" in="SourceGraphic" in2="effect1_dropShadow_9614_1671" result="shape"/>
</filter>
</defs>
</svg>
